<?xml version="1.0" encoding="utf-8"?>
<!DOCTYPE svg PUBLIC "-//W3C//DTD SVG 1.1//EN" "http://www.w3.org/Graphics/SVG/1.1/DTD/svg11.dtd">
<svg  width="185px" height="45px" viewBox="-61 167 185 45" version="1.1" xmlns="http://www.w3.org/2000/svg" xmlns:xlink="http://www.w3.org/1999/xlink" aria-labelledby="titu descrip" role="img">
                        <title id="titu">Logo TAW</title>
                        <desc id="descrip">Palabra TAW junto a un rectangulo redondeado que incluye 3 circulos en rojo amarillo y verde, como en un semaforo </desc>
                        <g id="Group-4" stroke="none" stroke-width="1" fill="none" fill-rule="evenodd" transform="translate(-61.000000, 167.000000)">
                            <path d="M0,4.01333333 L0,0 L22.3414648,0 L22.3414648,4.01333333 L13.2687887,4.01333333 L13.2687887,41.1653333 L9.12938028,41.1653333 L9.12938028,4.01333333 L0,4.01333333 Z M57.5547887,10.7213333 L57.5547887,41.1653333 L53.7556056,41.1653333 L53.7556056,35.948 C50.3155321,40.1142431 46.3840785,42.1973333 41.9611268,42.1973333 C37.5381751,42.1973333 33.8051842,40.6015715 30.7620423,37.41 C27.7189003,34.2184285 26.1973521,30.4153554 26.1973521,26.0006667 C26.1973521,21.5859779 27.7283509,17.8020158 30.7903944,14.6486667 C33.8524378,11.4953176 37.5192744,9.91866667 41.7910141,9.91866667 C46.7054049,9.91866667 50.6935622,12.0399788 53.7556056,16.2826667 L53.7556056,10.7213333 L57.5547887,10.7213333 Z M53.9824225,26.0866667 C53.9824225,22.6084271 52.8294481,19.6749008 50.5234648,17.286 C48.2174814,14.8970992 45.3917491,13.7026667 42.0461831,13.7026667 C38.7006171,13.7026667 35.8748848,14.935321 33.5689014,17.4006667 C31.262918,19.8660123 30.1099437,22.7804276 30.1099437,26.144 C30.1099437,29.5075724 31.2818193,32.4219877 33.6256056,34.8873333 C35.969392,37.352679 38.7762231,38.5853333 42.0461831,38.5853333 C45.3161431,38.5853333 48.1229742,37.4004563 50.4667606,35.0306667 C52.8105469,32.660877 53.9824225,29.6795735 53.9824225,26.0866667 Z M62.2045352,10.7213333 L66.2305352,10.7213333 L75.4166197,33.8266667 L85.1130423,10.7213333 L85.793493,10.7213333 L95.4332113,33.8266667 L104.789408,10.7213333 L108.872113,10.7213333 L95.7734366,42.1973333 L95.0362817,42.1973333 L85.4532676,19.3786667 L75.8135493,42.1973333 L75.0763944,42.1973333 L62.2045352,10.7213333 Z" id="Taw" fill="#FFFFFF"></path>
                            <g id="taw-icon-color" transform="translate(116.274648, 11.727273)">
                                <g id="Group" transform="translate(32.883278, 15.256287) rotate(90.000000) translate(-32.883278, -15.256287) translate(17.883278, -16.743713)">
                                    <path d="M9.48813617,15.6241408 C9.48813617,18.6096959 11.9155552,21.0299665 14.9099283,21.0299665 C17.9043014,21.0299665 20.3317204,18.6096959 20.3317204,15.6241408 C20.3317204,12.6385857 17.9043014,10.2183151 14.9099283,10.2183151 C11.9155552,10.2183151 9.48813617,12.6385857 9.48813617,15.6241408 Z" id="Oval" fill="#68B46C"></path>
                                    <path d="M9.48813617,46.7076386 C9.48813617,49.6931937 11.9155552,52.1134643 14.9099283,52.1134643 C17.9043014,52.1134643 20.3317204,49.6931937 20.3317204,46.7076386 C20.3317204,43.7220835 17.9043014,41.3018129 14.9099283,41.3018129 C11.9155552,41.3018129 9.48813617,43.7220835 9.48813617,46.7076386 Z" id="Oval" fill="#D3565C"></path>
                                    <path d="M9.48813617,31.8416179 C9.48813617,34.827173 11.9155552,37.2474436 14.9099283,37.2474436 C17.9043014,37.2474436 20.3317204,34.827173 20.3317204,31.8416179 C20.3317204,28.8560628 17.9043014,26.4357922 14.9099283,26.4357922 C11.9155552,26.4357922 9.48813617,28.8560628 9.48813617,31.8416179 Z" id="Oval" fill="#E8C939"></path>
                                    <rect id="Rectangle-2" stroke="#FFFFFF" stroke-width="4.5" transform="translate(14.909928, 31.841618) rotate(90.000000) translate(-14.909928, -31.841618) " x="-16.6892705" y="17.4900604" width="63.1983976" height="28.7031151" rx="14.3515575"></rect>
                                </g>
                            </g>
                        </g>
</svg>